<?xml version="1.0" standalone="no"?>
<!DOCTYPE svg PUBLIC "-//W3C//DTD SVG 20010904//EN"
 "http://www.w3.org/TR/2001/REC-SVG-20010904/DTD/svg10.dtd">
<svg version="1.0" xmlns="http://www.w3.org/2000/svg"
 width="1233.000000pt" height="210.000000pt" viewBox="0 0 1233.000000 210.000000"
 preserveAspectRatio="xMidYMid meet">

<g transform="translate(0.000000,210.000000) scale(0.100000,-0.100000)"
fill="#000000" stroke="none">
<path d="M0 2086 c0 -9 8 -16 18 -16 41 0 124 -33 156 -61 72 -63 71 -52 71
-734 l0 -610 -25 -49 c-34 -68 -82 -104 -158 -118 -39 -7 -62 -16 -62 -25 0
-11 95 -13 518 -13 559 0 645 6 775 53 203 74 344 237 408 472 33 119 33 344
1 470 -81 315 -296 539 -592 616 -82 22 -106 23 -597 26 -459 4 -513 3 -513
-11z m824 -37 c192 -26 342 -122 456 -289 94 -139 140 -289 147 -485 10 -266
-56 -467 -203 -626 -86 -91 -167 -131 -309 -150 -151 -20 -274 13 -336 91 -58
72 -59 91 -59 812 l0 658 114 0 c63 0 149 -5 190 -11z"/>
<path d="M4300 1499 c-69 -10 -144 -21 -167 -24 -34 -5 -43 -10 -43 -26 0 -15
7 -19 33 -19 43 0 98 -31 119 -67 10 -16 22 -60 28 -99 12 -82 12 -873 1
-1024 -12 -150 -36 -187 -134 -205 -22 -4 -37 -13 -37 -21 0 -12 46 -14 265
-14 225 0 265 2 265 15 0 8 -14 17 -34 20 -49 10 -92 39 -113 77 -14 27 -18
68 -21 235 -2 112 -2 203 1 203 4 0 32 -18 63 -40 74 -52 139 -71 240 -71 99
0 161 14 239 55 250 130 347 485 208 760 -33 65 -114 149 -178 186 -144 83
-345 80 -504 -6 -35 -19 -64 -34 -66 -32 -1 2 -6 27 -11 57 -5 30 -13 55 -19
56 -5 2 -66 -6 -135 -16z m513 -51 c22 -7 64 -34 93 -61 161 -147 204 -477 92
-705 -64 -129 -161 -201 -271 -202 -125 0 -208 69 -244 202 -22 81 -24 441 -4
533 41 186 176 280 334 233z"/>
<path d="M2297 1486 c-251 -73 -407 -306 -383 -574 22 -235 154 -403 363 -457
83 -22 265 -20 341 3 109 35 184 104 225 210 17 42 16 62 -3 62 -5 0 -19 -22
-31 -50 -47 -110 -150 -166 -293 -158 -234 12 -386 209 -386 500 l0 88 351 0
352 0 -5 64 c-7 78 -52 169 -111 222 -22 20 -69 50 -105 67 -57 27 -78 31
-166 33 -65 2 -118 -2 -149 -10z m199 -40 c85 -40 130 -112 149 -240 l7 -46
-256 0 c-212 0 -256 2 -256 14 0 8 9 43 20 79 27 88 86 161 153 193 66 30 118
30 183 0z"/>
<path d="M3393 1481 c-85 -25 -164 -75 -233 -148 -102 -108 -147 -243 -136
-408 9 -146 55 -255 145 -346 101 -101 207 -139 387 -139 135 0 215 22 288 77
70 54 145 198 110 210 -6 2 -23 -21 -38 -51 -55 -112 -149 -162 -291 -154 -68
4 -95 10 -148 36 -148 73 -237 245 -237 459 l0 93 351 0 351 0 -4 58 c-8 111
-80 223 -178 276 -106 58 -246 72 -367 37z m207 -32 c58 -26 87 -53 115 -109
19 -38 45 -137 45 -172 0 -4 -115 -8 -256 -8 l-257 0 7 43 c17 103 88 205 171
243 61 29 116 30 175 3z"/>
<path d="M5560 1482 c-49 -26 -83 -93 -75 -147 13 -85 68 -128 157 -122 65 4
100 28 124 84 19 44 18 82 -5 123 -39 74 -126 101 -201 62z"/>
<path d="M6391 1485 c-85 -24 -171 -75 -236 -140 -100 -101 -145 -218 -145
-383 0 -165 46 -284 148 -386 104 -104 220 -141 419 -134 102 3 126 8 178 32
33 15 77 44 99 64 38 37 96 141 96 175 0 36 -26 14 -55 -46 -51 -106 -144
-153 -290 -145 -144 8 -255 86 -322 224 -39 83 -65 207 -61 296 l3 63 354 3
354 2 -7 57 c-15 132 -112 257 -233 303 -76 29 -225 36 -302 15z m194 -34 c81
-38 141 -131 152 -237 l6 -54 -256 0 -256 0 6 33 c14 75 46 140 96 193 77 82
166 105 252 65z"/>
<path d="M7310 1490 c-25 -4 -84 -13 -132 -20 -99 -14 -115 -31 -44 -49 52
-13 91 -54 106 -112 7 -27 10 -155 8 -372 -4 -409 -4 -410 -127 -442 -25 -6
-46 -16 -49 -23 -3 -9 61 -12 267 -12 215 0 271 3 271 13 0 7 -21 18 -46 25
-28 8 -60 26 -79 45 -44 44 -48 80 -43 402 5 282 14 343 64 418 57 86 132 87
225 1 46 -43 66 -54 92 -54 48 0 77 31 77 81 0 150 -294 145 -430 -8 l-45 -50
-10 81 c-11 91 -13 92 -105 76z"/>
<path d="M8351 1484 c-84 -23 -150 -63 -227 -139 -115 -114 -162 -245 -150
-420 10 -151 53 -253 145 -346 101 -101 207 -139 387 -139 135 0 215 22 288
77 70 54 145 198 110 210 -6 2 -23 -21 -38 -51 -55 -112 -149 -162 -291 -154
-68 4 -95 10 -148 36 -148 73 -237 245 -237 459 l0 93 351 0 351 0 -4 58 c-11
150 -122 276 -282 318 -66 18 -186 17 -255 -2z m199 -35 c58 -26 87 -53 115
-109 19 -38 45 -137 45 -172 0 -4 -115 -8 -256 -8 l-257 0 7 43 c17 103 88
205 171 243 61 29 116 30 175 3z"/>
<path d="M9250 1485 c-47 -7 -111 -15 -142 -19 -65 -8 -79 -30 -25 -41 55 -12
86 -34 109 -78 23 -41 23 -48 23 -377 0 -298 -2 -340 -18 -381 -23 -60 -42
-76 -105 -91 -29 -7 -52 -18 -52 -25 0 -10 59 -13 271 -13 292 0 314 5 204 44
-80 29 -96 54 -106 163 -10 119 -10 386 0 504 10 106 29 155 83 206 93 90 302
86 367 -6 43 -61 46 -91 46 -436 0 -294 -2 -333 -17 -362 -25 -45 -63 -71
-114 -79 -28 -4 -44 -11 -44 -20 0 -12 46 -14 270 -14 224 0 270 2 270 14 0 8
-14 16 -32 20 -44 8 -93 39 -115 73 -16 24 -18 62 -23 383 -5 340 -6 357 -27
395 -50 93 -146 145 -283 153 -134 7 -229 -21 -330 -97 l-55 -42 -3 28 c-1 15
-5 47 -8 71 -6 49 -2 48 -144 27z"/>
<path d="M10766 1484 c-147 -35 -278 -142 -343 -279 -151 -318 -14 -670 292
-750 69 -18 231 -20 305 -4 28 6 72 25 98 42 70 48 151 178 117 191 -9 3 -23
-15 -40 -49 -33 -68 -84 -111 -154 -132 -189 -55 -384 87 -446 327 -25 94 -16
269 18 367 59 171 150 261 272 270 82 7 113 -16 153 -112 42 -102 68 -130 123
-130 33 0 46 6 65 28 68 79 -15 192 -171 232 -73 18 -210 18 -289 -1z"/>
<path d="M11771 1485 c-179 -50 -320 -191 -366 -366 -19 -72 -19 -239 0 -314
48 -184 190 -320 372 -355 93 -19 275 -9 344 19 79 30 146 92 180 166 16 33
29 68 29 78 0 29 -27 19 -41 -15 -25 -65 -67 -114 -121 -143 -73 -40 -195 -47
-281 -17 -173 61 -273 225 -285 465 l-5 107 357 0 356 0 0 23 c0 44 -27 136
-53 180 -37 63 -118 132 -185 158 -75 28 -224 35 -301 14z m173 -26 c85 -24
159 -127 172 -243 l7 -56 -257 0 -256 0 6 28 c21 97 49 153 100 206 66 68 141
89 228 65z"/>
<path d="M5570 704 c-113 -96 -59 -257 88 -259 l54 0 -6 -33 c-8 -51 -50 -136
-90 -179 -19 -22 -63 -54 -96 -72 -67 -36 -83 -68 -27 -57 230 45 401 366 293
551 -32 55 -69 75 -135 75 -39 0 -56 -6 -81 -26z"/>
</g>
</svg>
